<svg aria-hidden="true" style="position: absolute; width: 0; height: 0; overflow: hidden;" version="1.1" xmlns="http://www.w3.org/2000/svg" xmlns:xlink="http://www.w3.org/1999/xlink">
<defs>

<symbol id="mail-icon" viewBox="0 0 86 59">
  <path d="M77.6538 0H8.34619C4.27938 0 0.955566 3.3022 0.955566 7.375V51.625C0.955566 55.6993 4.28151 59 8.34619 59H77.6538C81.7206 59 85.0445 55.6978 85.0445 51.625V7.375C85.0445 3.30121 81.719 0 77.6538 0ZM76.519 4.91667C74.1295 7.30895 46.0622 35.4082 44.9091 36.5626C43.946 37.5266 42.0545 37.5273 41.0909 36.5626L9.48106 4.91667H76.519ZM5.88265 50.7211V8.27885L27.0798 29.5L5.88265 50.7211ZM9.48106 54.0833L30.5581 32.9823L37.6014 40.0336C40.4877 42.9232 45.5135 42.922 48.3988 40.0336L55.442 32.9825L76.519 54.0833H9.48106ZM80.1174 50.7211L58.9202 29.5L80.1174 8.27885V50.7211Z" fill="var(--green-color)"></path>
</symbol>
</defs>
</svg>


